# xmcd CD database file
#
# Track frame offsets:
#	150
#	43337
#	84631
#	98195
#	138201
#	193222
#	218213
#
# Disc length: 3553 seconds
#
# Revision: 0
# Processed by: cddbd v1.5.2PL0 Copyright (c) Steve Scherf et al.
# Submitted via: CDex 1.70beta2
#
DISCID=650ddf07
DTITLE=日野皓正・菊地雅章クインテット - Counter Current
DYEAR=2007
DGENRE=Jazz
TTITLE0=J.L.L. (Ver.1)
TTITLE1=Sky Over Rain Forest
TTITLE2=Blue In Yellow (For Mark Rothko)
TTITLE3=Misery On The Hudson
TTITLE4=Making The Elephant Run (Ver.1)
TTITLE5=Making The Elephant Run (Ver.2)
TTITLE6=J.L.L. (Ver.2)
EXTD=YEAR: 2007
EXTT0=
EXTT1=
EXTT2=
EXTT3=
EXTT4=
EXTT5=
EXTT6=
PLAYORDER=
